<svg xmlns="http://www.w3.org/2000/svg" viewBox="0 0 128 128" class="robot-turret rifle e" data-weapon="rifle" data-facing="E" data-mount-x="64" data-mount-y="20" role="img" aria-labelledby="title desc">
  <title id="title">Rifle head turret east</title>
  <desc id="desc">Circular red robot head with a clean blue rifle turret aimed east.</desc>
  <defs>
    <radialGradient id="headRed" cx="35%" cy="23%" r="78%">
      <stop offset="0%" stop-color="#ffd0c7"/>
      <stop offset="31%" stop-color="#f0443b"/>
      <stop offset="72%" stop-color="#941019"/>
      <stop offset="100%" stop-color="#44070d"/>
    </radialGradient>
    <linearGradient id="blue" x1="74" y1="18" x2="121" y2="27" gradientUnits="userSpaceOnUse">
      <stop offset="0%" stop-color="#e8fbff"/>
      <stop offset="24%" stop-color="#5bd2ff"/>
      <stop offset="62%" stop-color="#0875d8"/>
      <stop offset="100%" stop-color="#061742"/>
    </linearGradient>
    <filter id="blueGlow" x="-35%" y="-35%" width="170%" height="170%">
      <feDropShadow dx="0" dy="0" stdDeviation="1.5" flood-color="#2bbfff" flood-opacity="0.38"/>
    </filter>
  </defs>
  <g class="head">
    <path d="M56.2 14.3c3.3-8.8 15.1-11.5 22.6-5.1 7.4 6.3 7.1 17.9-.5 23.5-7.9 5.8-19.9 1.8-22.9-7.6-1-3.1-.7-6.7.8-10.8Z" fill="#3f060d" opacity="0.82"/>
    <path d="M54.2 14.8C57.5 5.5 69.8 2.7 77.6 9.4c7.7 6.6 7.5 18.7-.5 24.5-8.1 5.9-20.6 1.8-23.6-7.9-1-3.3-.8-7 .7-11.2Z" fill="url(#headRed)"/>
    <ellipse cx="62.9" cy="11.7" rx="7" ry="3.6" transform="rotate(-26 62.9 11.7)" fill="#ffe0d8" opacity="0.58"/>
    <circle cx="75.4" cy="20" r="3.5" fill="#4f0710"/>
    <circle cx="76.1" cy="19.5" r="1.95" fill="#fff5e9"/>
  </g>
  <g class="turret" filter="url(#blueGlow)">
    <ellipse cx="80.8" cy="22.2" rx="8" ry="6.1" transform="rotate(6 80.8 22.2)" fill="url(#blue)"/>
    <ellipse cx="78.4" cy="20.8" rx="4.5" ry="2.5" transform="rotate(6 78.4 20.8)" fill="#d9fbff" opacity="0.54"/>
    <rect x="87.4" y="19.2" width="30.5" height="7.2" rx="3.6" transform="rotate(4 87.4 19.2)" fill="url(#blue)"/>
    <rect x="90.6" y="20.4" width="23.5" height="1.55" rx="0.8" transform="rotate(4 90.6 20.4)" fill="#f5feff" opacity="0.62"/>
    <ellipse cx="118" cy="24.5" rx="4.4" ry="4" transform="rotate(4 118 24.5)" fill="#061640"/>
    <ellipse cx="117.6" cy="24.5" rx="2.3" ry="2" transform="rotate(4 117.6 24.5)" fill="#39a8ff"/>
  </g>
</svg>
