<svg xmlns="http://www.w3.org/2000/svg" viewBox="0 0 128 128" class="robot-turret rifle s" data-weapon="rifle" data-facing="S" data-mount-x="64" data-mount-y="20" role="img" aria-labelledby="title desc">
  <title id="title">Rifle head turret south</title>
  <desc id="desc">Circular red robot head with blue rifle turret aimed south.</desc>
  <defs>
    <radialGradient id="headRed" cx="35%" cy="23%" r="78%">
      <stop offset="0%" stop-color="#ffd0c7"/>
      <stop offset="31%" stop-color="#f0443b"/>
      <stop offset="72%" stop-color="#941019"/>
      <stop offset="100%" stop-color="#44070d"/>
    </radialGradient>
    <linearGradient id="blue" x1="61" y1="25" x2="74" y2="66" gradientUnits="userSpaceOnUse">
      <stop offset="0%" stop-color="#e8fbff"/>
      <stop offset="24%" stop-color="#5bd2ff"/>
      <stop offset="62%" stop-color="#0875d8"/>
      <stop offset="100%" stop-color="#061742"/>
    </linearGradient>
    <filter id="blueGlow" x="-35%" y="-35%" width="170%" height="170%">
      <feDropShadow dx="0" dy="0" stdDeviation="1.5" flood-color="#2bbfff" flood-opacity="0.38"/>
    </filter>
  </defs>
  <g class="head">
    <path d="M55.2 17.8c3.4-9.1 15.6-12.1 23.3-5.6 7.6 6.4 7.5 18.3-.4 24.1-8 5.9-20.3 1.9-23.4-7.5-1.1-3.3-.9-7 .5-11Z" fill="#3f060d" opacity="0.82"/>
    <path d="M53.1 18.2C56.6 8.6 69.3 5.5 77.3 12.4c7.9 6.7 7.7 19.2-.6 25.2-8.4 6-21.1 1.8-24.2-8.1-1.1-3.4-.8-7.2.6-11.3Z" fill="url(#headRed)"/>
    <ellipse cx="62.3" cy="14.7" rx="7.1" ry="3.6" transform="rotate(-28 62.3 14.7)" fill="#ffe0d8" opacity="0.56"/>
    <circle cx="65.5" cy="30.5" r="3.2" fill="#4f0710"/>
    <circle cx="66.2" cy="31" r="1.8" fill="#fff5e9"/>
  </g>
  <g class="turret" filter="url(#blueGlow)">
    <ellipse cx="66.6" cy="32" rx="7.2" ry="6.3" transform="rotate(90 66.6 32)" fill="url(#blue)"/>
    <ellipse cx="64.2" cy="29.8" rx="4" ry="2.4" transform="rotate(90 64.2 29.8)" fill="#d9fbff" opacity="0.5"/>
    <rect x="63" y="35" width="8" height="31" rx="4" fill="url(#blue)"/>
    <rect x="64.3" y="38" width="1.55" height="23.5" rx="0.8" fill="#f5feff" opacity="0.58"/>
    <ellipse cx="67" cy="67.5" rx="4.1" ry="4.5" fill="#061640"/>
    <ellipse cx="67" cy="67.1" rx="2" ry="2.35" fill="#39a8ff"/>
  </g>
</svg>
