<svg xmlns="http://www.w3.org/2000/svg" viewBox="0 0 128 128" class="robot-turret rifle se" data-weapon="rifle" data-facing="SE" data-mount-x="64" data-mount-y="20" role="img" aria-labelledby="title desc">
  <title id="title">Rifle head turret southeast</title>
  <desc id="desc">Circular red robot head with blue rifle turret aimed southeast.</desc>
  <defs>
    <radialGradient id="headRed" cx="35%" cy="23%" r="78%">
      <stop offset="0%" stop-color="#ffd0c7"/>
      <stop offset="31%" stop-color="#f0443b"/>
      <stop offset="72%" stop-color="#941019"/>
      <stop offset="100%" stop-color="#44070d"/>
    </radialGradient>
    <linearGradient id="blue" x1="73" y1="24" x2="117" y2="55" gradientUnits="userSpaceOnUse">
      <stop offset="0%" stop-color="#e8fbff"/>
      <stop offset="24%" stop-color="#5bd2ff"/>
      <stop offset="62%" stop-color="#0875d8"/>
      <stop offset="100%" stop-color="#061742"/>
    </linearGradient>
    <filter id="blueGlow" x="-35%" y="-35%" width="170%" height="170%">
      <feDropShadow dx="0" dy="0" stdDeviation="1.5" flood-color="#2bbfff" flood-opacity="0.38"/>
    </filter>
  </defs>
  <g class="head">
    <path d="M56.5 17.4c3.2-8.7 14.8-11.5 22.2-5.4 7.3 6 7.3 17.3-.2 23-7.6 5.8-19.4 2.1-22.5-7.1-1.1-3.1-.9-6.6.5-10.5Z" fill="#3f060d" opacity="0.82"/>
    <path d="M54.5 17.7C57.7 8.5 69.8 5.6 77.5 12c7.6 6.3 7.7 18.1-.1 24-7.9 6-20.2 2.1-23.4-7.4-1-3.2-.9-6.8.5-10.9Z" fill="url(#headRed)"/>
    <ellipse cx="63.1" cy="14.2" rx="6.8" ry="3.4" transform="rotate(-28 63.1 14.2)" fill="#ffe0d8" opacity="0.56"/>
    <circle cx="75" cy="25.2" r="3.4" fill="#4f0710"/>
    <circle cx="75.7" cy="24.6" r="1.9" fill="#fff5e9"/>
  </g>
  <g class="turret" filter="url(#blueGlow)">
    <ellipse cx="80" cy="29" rx="7.8" ry="6" transform="rotate(28 80 29)" fill="url(#blue)"/>
    <ellipse cx="77.6" cy="27.3" rx="4.4" ry="2.35" transform="rotate(28 77.6 27.3)" fill="#d9fbff" opacity="0.52"/>
    <rect x="86" y="29.5" width="30.5" height="7.2" rx="3.6" transform="rotate(28 86 29.5)" fill="url(#blue)"/>
    <rect x="89.4" y="30.8" width="22.6" height="1.55" rx="0.8" transform="rotate(28 89.4 30.8)" fill="#f5feff" opacity="0.6"/>
    <ellipse cx="113" cy="47.6" rx="4.4" ry="4" transform="rotate(28 113 47.6)" fill="#061640"/>
    <ellipse cx="112.6" cy="47.4" rx="2.3" ry="2" transform="rotate(28 112.6 47.4)" fill="#39a8ff"/>
  </g>
</svg>
