<svg xmlns="http://www.w3.org/2000/svg" viewBox="0 0 96 96" class="robot-turret stealth" data-class="stealth" data-pivot="48 48" data-scale-baked="1.18" role="img" aria-label="stealth bot turret">
  <desc>Foundry Plate stealth turret, top-down pointing N. Pivot at the viewBox center (48,48); rotate the whole sprite around its center to aim. The 1.18x readability scale is baked in. Generated by scripts/generate-robot-assets.mjs — do not hand-edit.</desc>
  <defs>
    <linearGradient id="fp-steel" x1="0" y1="0" x2="0" y2="1">
      <stop offset="0%" stop-color="#dfe5ea"/>
      <stop offset="40%" stop-color="#a9b2bc"/>
      <stop offset="75%" stop-color="#6a7480"/>
      <stop offset="100%" stop-color="#454d58"/>
    </linearGradient>
    <linearGradient id="fp-iron" x1="0" y1="0" x2="0" y2="1">
      <stop offset="0%" stop-color="#8b95a1"/>
      <stop offset="55%" stop-color="#3a414b"/>
      <stop offset="100%" stop-color="#22272f"/>
    </linearGradient>
    <linearGradient id="fp-paint" x1="0" y1="0" x2="0" y2="1">
      <stop offset="0%" stop-color="#d8453a"/>
      <stop offset="55%" stop-color="#a3241f"/>
      <stop offset="100%" stop-color="#5f1213"/>
    </linearGradient>
    <linearGradient id="fp-gun" x1="72" y1="0" x2="82" y2="0" gradientUnits="userSpaceOnUse">
      <stop offset="0%" stop-color="#39404a"/>
      <stop offset="45%" stop-color="#9aa5b1"/>
      <stop offset="58%" stop-color="#c7d0d8"/>
      <stop offset="100%" stop-color="#2c323b"/>
    </linearGradient>
    <radialGradient id="fp-pod" cx="50%" cy="42%" r="70%">
      <stop offset="0%" stop-color="#cfd6dd"/>
      <stop offset="60%" stop-color="#7e8894"/>
      <stop offset="100%" stop-color="#3a414b"/>
    </radialGradient>
  </defs>
  <g class="turret" transform="translate(48 48) scale(1.18) translate(-64 -42)">
    <circle cx="64" cy="42" r="9.5" fill="url(#fp-iron)" stroke="#14181e" stroke-width="1.1"/>
    <polygon points="64,32.5 70.5,38 70.5,46 64,51.5 57.5,46 57.5,38" fill="url(#fp-pod)" stroke="#1c2127" stroke-width="1.1"/>
    <polygon points="64,35.5 68,39 68,45 64,48.5 60,45 60,39" fill="url(#fp-iron)"/>
    <rect x="60.6" y="33.8" width="6.8" height="3.4" rx="1.6" fill="#3ad9ee" opacity="0.28"/>
    <rect x="61.4" y="34.6" width="5.2" height="1.8" rx="0.9" fill="#6ff2ff"/>
    <path d="M58.5 47.5 53.5 53.5" stroke="#454d58" stroke-width="1.6"/>
    <path d="M69.5 47.5 74.5 53.5" stroke="#454d58" stroke-width="1.6"/>
    <circle cx="53.2" cy="53.8" r="1" fill="#6ff2ff" opacity="0.8"/>
    <circle cx="74.8" cy="53.8" r="1" fill="#6ff2ff" opacity="0.8"/>
    <rect x="70.5" y="39.5" width="5" height="5.4" rx="1.1" fill="url(#fp-iron)" stroke="#14181e" stroke-width="0.9"/>
    <rect x="74.4" y="30" width="4.4" height="11" rx="1.6" fill="url(#fp-gun)" stroke="#14181e" stroke-width="0.8"/>
    <rect class="team-paint-accent" x="74.8" y="36.5" width="3.6" height="2" fill="#c8362e"/>
    <rect x="75.6" y="22.5" width="2" height="8" fill="url(#fp-gun)" stroke="#14181e" stroke-width="0.6"/>
    <rect x="74.9" y="17.5" width="3.4" height="6" rx="1.6" fill="#22272f"/>
  </g>
</svg>
