<svg xmlns="http://www.w3.org/2000/svg" viewBox="0 0 24 24" class="robot rifle-standing-oblique" data-facing="E">
  <g class="legs">
    <rect class="leg leg-left" x="7.5" y="17" width="2.6" height="5" rx="1.1" fill="#4a4a55"/>
    <rect class="leg leg-right" x="12.5" y="17" width="2.6" height="5" rx="1.1" fill="#4a4a55"/>
    <ellipse class="foot foot-left" cx="8.8" cy="22" rx="1.9" ry="1" fill="#3a3a45"/>
    <ellipse class="foot foot-right" cx="13.8" cy="22" rx="1.9" ry="1" fill="#3a3a45"/>
  </g>

  <ellipse class="body" cx="11.3" cy="12.8" rx="5.6" ry="5.2" fill="#6a6a75"/>
  <ellipse class="body-shade" cx="13.8" cy="14.4" rx="2.6" ry="3" fill="#5a5a65"/>
  <ellipse class="body-highlight" cx="9.4" cy="10.6" rx="1.9" ry="2.3" fill="#8a8a95"/>

  <rect class="neck" x="10" y="6.6" width="3" height="2.6" rx="0.5" fill="#4a4a55"/>

  <ellipse class="head" cx="11.3" cy="5" rx="3.3" ry="3" fill="#6a6a75"/>
  <ellipse class="head-shade" cx="12.6" cy="6" rx="1.3" ry="1.3" fill="#5a5a65"/>
  <ellipse class="head-highlight" cx="10.1" cy="3.9" rx="1.1" ry="1.1" fill="#8a8a95"/>

  <circle class="light" cx="13.4" cy="4.7" r="0.75" fill="#e8e8ee"/>

  <rect class="gun-mount" x="12.6" y="3.9" width="2.1" height="2.6" rx="0.4" fill="#4a4a55"/>
  <rect class="barrel" x="14.2" y="4.4" width="6.6" height="1.6" rx="0.4" fill="#4a4a55"/>
  <circle class="muzzle" cx="20.8" cy="5.2" r="0.5" fill="#4a4a55"/>
</svg>
