<svg xmlns="http://www.w3.org/2000/svg" viewBox="0 0 128 128" class="robot-body burst" data-class="burst" data-posture="ducking" data-turret-pivot="64 50" role="img" aria-label="burst bot body, ducking">
  <desc>Foundry Plate burst chassis, ducking posture (combat hunker; legs rise to a sharp high knee then drop steeply, hull down ~6px, same traversal as upright). Layers: shadow, legs, body. Turret ships separately in turret.svg and mounts at data-turret-pivot. Generated by scripts/generate-robot-assets.mjs — do not hand-edit.</desc>
  <defs>
    <linearGradient id="fp-steel" x1="0" y1="0" x2="0" y2="1">
      <stop offset="0%" stop-color="#dfe5ea"/>
      <stop offset="40%" stop-color="#a9b2bc"/>
      <stop offset="75%" stop-color="#6a7480"/>
      <stop offset="100%" stop-color="#454d58"/>
    </linearGradient>
    <linearGradient id="fp-iron" x1="0" y1="0" x2="0" y2="1">
      <stop offset="0%" stop-color="#8b95a1"/>
      <stop offset="55%" stop-color="#3a414b"/>
      <stop offset="100%" stop-color="#22272f"/>
    </linearGradient>
    <linearGradient id="fp-paint" x1="0" y1="0" x2="0" y2="1">
      <stop offset="0%" stop-color="#d8453a"/>
      <stop offset="55%" stop-color="#a3241f"/>
      <stop offset="100%" stop-color="#5f1213"/>
    </linearGradient>
    <linearGradient id="fp-gun" x1="72" y1="0" x2="82" y2="0" gradientUnits="userSpaceOnUse">
      <stop offset="0%" stop-color="#39404a"/>
      <stop offset="45%" stop-color="#9aa5b1"/>
      <stop offset="58%" stop-color="#c7d0d8"/>
      <stop offset="100%" stop-color="#2c323b"/>
    </linearGradient>
    <radialGradient id="fp-pod" cx="50%" cy="42%" r="70%">
      <stop offset="0%" stop-color="#cfd6dd"/>
      <stop offset="60%" stop-color="#7e8894"/>
      <stop offset="100%" stop-color="#3a414b"/>
    </radialGradient>
  </defs>
  <ellipse class="shadow" cx="64" cy="101" rx="45" ry="11.5" fill="#0a0d12" opacity="0.25"/>
  <g class="legs" stroke-linejoin="round">
    <g class="leg rear-left">
      <polygon points="47,63.5 47,70.5 27,59.5 27,53.5" fill="url(#fp-steel)" stroke="#22272f" stroke-width="1"/>
      <path d="M44 64.5 31 57" stroke="#eef2f5" stroke-width="1" opacity="0.6"/>
      <polygon points="26,58 30.5,59.5 23,87 19,85" fill="url(#fp-iron)" stroke="#181d24" stroke-width="1"/>
      <path d="M27.5 63 22 82" stroke="#b9c2cb" stroke-width="1.4" opacity="0.9"/>
      <circle cx="28" cy="56.5" r="4" fill="url(#fp-steel)" stroke="#22272f" stroke-width="1"/>
      <circle cx="28" cy="56.5" r="1.4" fill="#22272f"/>
      <polygon points="23,84.5 12.5,87 15,91 25.5,90" fill="url(#fp-iron)" stroke="#14181e" stroke-width="1"/>
      <path d="M18.5 87 19.5 90.5" stroke="#0f1318" stroke-width="1.1"/>
    </g>
    <g class="leg rear-right">
      <polygon points="81,63.5 81,70.5 101,59.5 101,53.5" fill="url(#fp-steel)" stroke="#22272f" stroke-width="1"/>
      <path d="M84 64.5 97 57" stroke="#eef2f5" stroke-width="1" opacity="0.6"/>
      <polygon points="102,58 97.5,59.5 105,87 109,85" fill="url(#fp-iron)" stroke="#181d24" stroke-width="1"/>
      <path d="M100.5 63 106 82" stroke="#b9c2cb" stroke-width="1.4" opacity="0.9"/>
      <circle cx="100" cy="56.5" r="4" fill="url(#fp-steel)" stroke="#22272f" stroke-width="1"/>
      <circle cx="100" cy="56.5" r="1.4" fill="#22272f"/>
      <polygon points="105,84.5 115.5,87 113,91 102.5,90" fill="url(#fp-iron)" stroke="#14181e" stroke-width="1"/>
      <path d="M109.5 87 108.5 90.5" stroke="#0f1318" stroke-width="1.1"/>
    </g>
    <g class="leg front-left">
      <polygon points="51,81.5 48,88 31,73.5 33,68.5" fill="url(#fp-steel)" stroke="#22272f" stroke-width="1"/>
      <path d="M47.5 83 36 73.5" stroke="#eef2f5" stroke-width="1" opacity="0.6"/>
      <polygon points="31,73 35.5,74 30,105.5 26,103.5" fill="url(#fp-iron)" stroke="#181d24" stroke-width="1"/>
      <path d="M32.5 78 28.5 100" stroke="#b9c2cb" stroke-width="1.4" opacity="0.9"/>
      <circle cx="33" cy="71.5" r="4.3" fill="url(#fp-steel)" stroke="#22272f" stroke-width="1"/>
      <circle cx="33" cy="71.5" r="1.5" fill="#22272f"/>
      <polygon points="30,103 19,106.5 22.5,110.5 33,108.5" fill="url(#fp-iron)" stroke="#14181e" stroke-width="1"/>
      <path d="M25.5 106.5 27 110" stroke="#0f1318" stroke-width="1.1"/>
    </g>
    <g class="leg front-right">
      <polygon points="77,81.5 80,88 97,73.5 95,68.5" fill="url(#fp-steel)" stroke="#22272f" stroke-width="1"/>
      <path d="M80.5 83 92 73.5" stroke="#eef2f5" stroke-width="1" opacity="0.6"/>
      <polygon points="97,73 92.5,74 98,105.5 102,103.5" fill="url(#fp-iron)" stroke="#181d24" stroke-width="1"/>
      <path d="M95.5 78 99.5 100" stroke="#b9c2cb" stroke-width="1.4" opacity="0.9"/>
      <circle cx="95" cy="71.5" r="4.3" fill="url(#fp-steel)" stroke="#22272f" stroke-width="1"/>
      <circle cx="95" cy="71.5" r="1.5" fill="#22272f"/>
      <polygon points="98,103 109,106.5 105.5,110.5 95,108.5" fill="url(#fp-iron)" stroke="#14181e" stroke-width="1"/>
      <path d="M102.5 106.5 101 110" stroke="#0f1318" stroke-width="1.1"/>
    </g>
  </g>
  <g class="body" transform="translate(0 6) translate(64 94.5) scale(1 0.96) translate(-64 -94.5) translate(64 93) scale(0.87) translate(-64 -93)">
    <ellipse cx="64" cy="92" rx="17" ry="6" fill="#14181e"/>
    <path d="M38 73 Q39 58 46 54 Q54 48.5 64 48.5 Q74 48.5 82 54 Q89 58 90 73 Q89 83 80 89.5 Q72 94.5 64 94.5 Q56 94.5 48 89.5 Q39 83 38 73 Z"
          fill="url(#fp-steel)" stroke="#1c2127" stroke-width="1.4"/>
    <path class="team-paint" d="M64 55 L82 63 L82 77 L64 88 L46 77 L46 63 Z" fill="url(#fp-paint)" stroke="#4a0f10" stroke-width="1"/>
    <path class="team-paint-edge" d="M50 62.5 L64 55.5 L78 62.5" fill="none" stroke="#ff9d8c" stroke-width="1" opacity="0.55"/>
    <path d="M46 63 L40 59.5 M82 63 L88 59.5 M82 77 L88 80 M46 77 L40 80" stroke="#262c34" stroke-width="1" opacity="0.85"/>
    <circle cx="64" cy="57.5" r="1.1" fill="#e3e9ee" stroke="#333a42" stroke-width="0.5"/>
    <circle cx="80" cy="63.5" r="1.1" fill="#e3e9ee" stroke="#333a42" stroke-width="0.5"/>
    <circle cx="48" cy="63.5" r="1.1" fill="#e3e9ee" stroke="#333a42" stroke-width="0.5"/>
    <circle cx="80" cy="76.5" r="1.1" fill="#e3e9ee" stroke="#333a42" stroke-width="0.5"/>
    <circle cx="48" cy="76.5" r="1.1" fill="#e3e9ee" stroke="#333a42" stroke-width="0.5"/>
    <circle cx="64" cy="85.5" r="1.1" fill="#e3e9ee" stroke="#333a42" stroke-width="0.5"/>
    <rect x="41" y="63.5" width="5" height="1.7" rx="0.8" transform="rotate(18 43.5 64.3)" fill="#14181e"/>
    <rect x="42" y="67.5" width="5" height="1.7" rx="0.8" transform="rotate(18 44.5 68.3)" fill="#14181e"/>
    <rect x="60" y="43" width="8" height="12" rx="2" fill="url(#fp-iron)" stroke="#14181e" stroke-width="1"/>
    <path d="M60.5 47 h7 M60.5 50 h7" stroke="#0f1318" stroke-width="1" opacity="0.8"/>
  </g>
</svg>
