<svg xmlns="http://www.w3.org/2000/svg" viewBox="0 0 128 128" class="robot-body burst" data-class="burst" data-posture="upright" data-turret-pivot="64 42" role="img" aria-label="burst bot body, upright">
  <desc>Foundry Plate burst chassis, upright posture (full height; standard travel posture). Layers: shadow, legs, body. Turret ships separately in turret.svg and mounts at data-turret-pivot. Generated by scripts/generate-robot-assets.mjs — do not hand-edit.</desc>
  <defs>
    <linearGradient id="fp-steel" x1="0" y1="0" x2="0" y2="1">
      <stop offset="0%" stop-color="#dfe5ea"/>
      <stop offset="40%" stop-color="#a9b2bc"/>
      <stop offset="75%" stop-color="#6a7480"/>
      <stop offset="100%" stop-color="#454d58"/>
    </linearGradient>
    <linearGradient id="fp-iron" x1="0" y1="0" x2="0" y2="1">
      <stop offset="0%" stop-color="#8b95a1"/>
      <stop offset="55%" stop-color="#3a414b"/>
      <stop offset="100%" stop-color="#22272f"/>
    </linearGradient>
    <linearGradient id="fp-paint" x1="0" y1="0" x2="0" y2="1">
      <stop offset="0%" stop-color="#d8453a"/>
      <stop offset="55%" stop-color="#a3241f"/>
      <stop offset="100%" stop-color="#5f1213"/>
    </linearGradient>
    <linearGradient id="fp-gun" x1="72" y1="0" x2="82" y2="0" gradientUnits="userSpaceOnUse">
      <stop offset="0%" stop-color="#39404a"/>
      <stop offset="45%" stop-color="#9aa5b1"/>
      <stop offset="58%" stop-color="#c7d0d8"/>
      <stop offset="100%" stop-color="#2c323b"/>
    </linearGradient>
    <radialGradient id="fp-pod" cx="50%" cy="42%" r="70%">
      <stop offset="0%" stop-color="#cfd6dd"/>
      <stop offset="60%" stop-color="#7e8894"/>
      <stop offset="100%" stop-color="#3a414b"/>
    </radialGradient>
  </defs>
  <ellipse class="shadow" cx="64" cy="101" rx="45" ry="11.5" fill="#0a0d12" opacity="0.25"/>
  <g class="legs" stroke-linejoin="round">
    <g class="leg rear-left">
      <polygon points="47,59.5 47,66.5 29,67.6 29,62.4" fill="url(#fp-steel)" stroke="#22272f" stroke-width="1"/>
      <path d="M44 61.5 32 63" stroke="#eef2f5" stroke-width="1" opacity="0.6"/>
      <polygon points="31,63.5 26.5,65.5 19,84 23,86 " fill="url(#fp-iron)" stroke="#181d24" stroke-width="1"/>
      <path d="M27.5 68 22 82" stroke="#b9c2cb" stroke-width="1.4" opacity="0.9"/>
      <circle cx="29" cy="65" r="4" fill="url(#fp-steel)" stroke="#22272f" stroke-width="1"/>
      <circle cx="29" cy="65" r="1.4" fill="#22272f"/>
      <polygon points="24,84 13.5,86.5 16,90.5 26,89.5" fill="url(#fp-iron)" stroke="#14181e" stroke-width="1"/>
      <path d="M19.5 86 20.5 89.8" stroke="#0f1318" stroke-width="1.1"/>
    </g>
    <g class="leg rear-right">
      <polygon points="81,59.5 81,66.5 99,67.6 99,62.4" fill="url(#fp-steel)" stroke="#22272f" stroke-width="1"/>
      <path d="M84 61.5 96 63" stroke="#eef2f5" stroke-width="1" opacity="0.6"/>
      <polygon points="97,63.5 101.5,65.5 109,84 105,86" fill="url(#fp-iron)" stroke="#181d24" stroke-width="1"/>
      <path d="M100.5 68 106 82" stroke="#b9c2cb" stroke-width="1.4" opacity="0.9"/>
      <circle cx="99" cy="65" r="4" fill="url(#fp-steel)" stroke="#22272f" stroke-width="1"/>
      <circle cx="99" cy="65" r="1.4" fill="#22272f"/>
      <polygon points="104,84 114.5,86.5 112,90.5 102,89.5" fill="url(#fp-iron)" stroke="#14181e" stroke-width="1"/>
      <path d="M108.5 86 107.5 89.8" stroke="#0f1318" stroke-width="1.1"/>
    </g>
    <g class="leg front-left">
      <polygon points="51,80.5 48,87.5 33,98 31.5,93" fill="url(#fp-steel)" stroke="#22272f" stroke-width="1"/>
      <path d="M48 84 36 93.5" stroke="#eef2f5" stroke-width="1" opacity="0.6"/>
      <polygon points="38,94 32.5,95.5 26.5,107.5 31,109" fill="url(#fp-iron)" stroke="#181d24" stroke-width="1"/>
      <path d="M33.5 98.5 29.5 106.5" stroke="#b9c2cb" stroke-width="1.4" opacity="0.9"/>
      <circle cx="36" cy="96" r="4.3" fill="url(#fp-steel)" stroke="#22272f" stroke-width="1"/>
      <circle cx="36" cy="96" r="1.5" fill="#22272f"/>
      <polygon points="32,106.5 20.5,110 24,114.5 34.5,112" fill="url(#fp-iron)" stroke="#14181e" stroke-width="1"/>
      <path d="M27 109.5 28.5 113.5" stroke="#0f1318" stroke-width="1.1"/>
    </g>
    <g class="leg front-right">
      <polygon points="77,80.5 80,87.5 95,98 96.5,93" fill="url(#fp-steel)" stroke="#22272f" stroke-width="1"/>
      <path d="M80 84 92 93.5" stroke="#eef2f5" stroke-width="1" opacity="0.6"/>
      <polygon points="90,94 95.5,95.5 101.5,107.5 97,109" fill="url(#fp-iron)" stroke="#181d24" stroke-width="1"/>
      <path d="M94.5 98.5 98.5 106.5" stroke="#b9c2cb" stroke-width="1.4" opacity="0.9"/>
      <circle cx="92" cy="96" r="4.3" fill="url(#fp-steel)" stroke="#22272f" stroke-width="1"/>
      <circle cx="92" cy="96" r="1.5" fill="#22272f"/>
      <polygon points="96,106.5 107.5,110 104,114.5 93.5,112" fill="url(#fp-iron)" stroke="#14181e" stroke-width="1"/>
      <path d="M101 109.5 99.5 113.5" stroke="#0f1318" stroke-width="1.1"/>
    </g>
  </g>
  <g class="body" transform="translate(64 93) scale(0.87) translate(-64 -93)">
    <ellipse cx="64" cy="92" rx="17" ry="6" fill="#14181e"/>
    <path d="M38 73 Q39 58 46 54 Q54 48.5 64 48.5 Q74 48.5 82 54 Q89 58 90 73 Q89 83 80 89.5 Q72 94.5 64 94.5 Q56 94.5 48 89.5 Q39 83 38 73 Z"
          fill="url(#fp-steel)" stroke="#1c2127" stroke-width="1.4"/>
    <path class="team-paint" d="M64 55 L82 63 L82 77 L64 88 L46 77 L46 63 Z" fill="url(#fp-paint)" stroke="#4a0f10" stroke-width="1"/>
    <path class="team-paint-edge" d="M50 62.5 L64 55.5 L78 62.5" fill="none" stroke="#ff9d8c" stroke-width="1" opacity="0.55"/>
    <path d="M46 63 L40 59.5 M82 63 L88 59.5 M82 77 L88 80 M46 77 L40 80" stroke="#262c34" stroke-width="1" opacity="0.85"/>
    <circle cx="64" cy="57.5" r="1.1" fill="#e3e9ee" stroke="#333a42" stroke-width="0.5"/>
    <circle cx="80" cy="63.5" r="1.1" fill="#e3e9ee" stroke="#333a42" stroke-width="0.5"/>
    <circle cx="48" cy="63.5" r="1.1" fill="#e3e9ee" stroke="#333a42" stroke-width="0.5"/>
    <circle cx="80" cy="76.5" r="1.1" fill="#e3e9ee" stroke="#333a42" stroke-width="0.5"/>
    <circle cx="48" cy="76.5" r="1.1" fill="#e3e9ee" stroke="#333a42" stroke-width="0.5"/>
    <circle cx="64" cy="85.5" r="1.1" fill="#e3e9ee" stroke="#333a42" stroke-width="0.5"/>
    <rect x="41" y="63.5" width="5" height="1.7" rx="0.8" transform="rotate(18 43.5 64.3)" fill="#14181e"/>
    <rect x="42" y="67.5" width="5" height="1.7" rx="0.8" transform="rotate(18 44.5 68.3)" fill="#14181e"/>
    <rect x="60" y="43" width="8" height="12" rx="2" fill="url(#fp-iron)" stroke="#14181e" stroke-width="1"/>
    <path d="M60.5 47 h7 M60.5 50 h7" stroke="#0f1318" stroke-width="1" opacity="0.8"/>
  </g>
</svg>
