<svg xmlns="http://www.w3.org/2000/svg" viewBox="0 0 96 96" class="robot-turret burst" data-class="burst" data-pivot="48 48" data-scale-baked="1.18" role="img" aria-label="burst bot turret">
  <desc>Foundry Plate burst turret, top-down pointing N. Pivot at the viewBox center (48,48); rotate the whole sprite around its center to aim. The 1.18x readability scale is baked in. Generated by scripts/generate-robot-assets.mjs — do not hand-edit.</desc>
  <defs>
    <linearGradient id="fp-steel" x1="0" y1="0" x2="0" y2="1">
      <stop offset="0%" stop-color="#dfe5ea"/>
      <stop offset="40%" stop-color="#a9b2bc"/>
      <stop offset="75%" stop-color="#6a7480"/>
      <stop offset="100%" stop-color="#454d58"/>
    </linearGradient>
    <linearGradient id="fp-iron" x1="0" y1="0" x2="0" y2="1">
      <stop offset="0%" stop-color="#8b95a1"/>
      <stop offset="55%" stop-color="#3a414b"/>
      <stop offset="100%" stop-color="#22272f"/>
    </linearGradient>
    <linearGradient id="fp-paint" x1="0" y1="0" x2="0" y2="1">
      <stop offset="0%" stop-color="#d8453a"/>
      <stop offset="55%" stop-color="#a3241f"/>
      <stop offset="100%" stop-color="#5f1213"/>
    </linearGradient>
    <linearGradient id="fp-gun" x1="72" y1="0" x2="82" y2="0" gradientUnits="userSpaceOnUse">
      <stop offset="0%" stop-color="#39404a"/>
      <stop offset="45%" stop-color="#9aa5b1"/>
      <stop offset="58%" stop-color="#c7d0d8"/>
      <stop offset="100%" stop-color="#2c323b"/>
    </linearGradient>
    <radialGradient id="fp-pod" cx="50%" cy="42%" r="70%">
      <stop offset="0%" stop-color="#cfd6dd"/>
      <stop offset="60%" stop-color="#7e8894"/>
      <stop offset="100%" stop-color="#3a414b"/>
    </radialGradient>
  </defs>
  <g class="turret" transform="translate(48 48) scale(1.18) translate(-64 -42)">
    <circle cx="64" cy="42" r="11" fill="url(#fp-iron)" stroke="#14181e" stroke-width="1.2"/>
    <circle cx="56.5" cy="34.5" r="1" fill="#cfd6dd"/>
    <circle cx="71.5" cy="34.5" r="1" fill="#cfd6dd"/>
    <circle cx="56.5" cy="49.5" r="1" fill="#cfd6dd"/>
    <circle cx="71.5" cy="49.5" r="1" fill="#cfd6dd"/>
    <polygon points="71.85,45.25 67.25,49.85 60.75,49.85 56.15,45.25 56.15,38.75 60.75,34.15 67.25,34.15 71.85,38.75"
             fill="url(#fp-pod)" stroke="#1c2127" stroke-width="1.2"/>
    <polygon points="69.2,44.15 66.15,47.2 61.85,47.2 58.8,44.15 58.8,39.85 61.85,36.8 66.15,36.8 69.2,39.85" fill="url(#fp-iron)"/>
    <rect x="59.5" y="32.2" width="9" height="4.6" rx="2.3" fill="#3ad9ee" opacity="0.3"/>
    <rect x="60.5" y="33.4" width="7" height="2.6" rx="1.2" fill="#6ff2ff"/>
    <path d="M69.5 47.5 73 51" stroke="#8b95a1" stroke-width="1.2"/>
    <circle cx="73.4" cy="51.4" r="1" fill="#6ff2ff"/>
    <rect x="70" y="39" width="7" height="6.4" rx="1.2" fill="url(#fp-iron)" stroke="#14181e" stroke-width="1"/>
    <rect x="74.9" y="47.5" width="4.2" height="7" rx="1.4" fill="#22272f"/>
    <rect x="72.4" y="31" width="10.2" height="17" rx="2" fill="url(#fp-gun)" stroke="#14181e" stroke-width="1"/>
    <rect class="team-paint-accent" x="73.2" y="42.5" width="8.6" height="2.4" fill="#c8362e"/>
    <circle cx="81.6" cy="35" r="1.6" fill="#cfd6dd" stroke="#14181e" stroke-width="0.6"/>
    <rect x="73.2" y="20" width="2.2" height="12.5" fill="url(#fp-gun)" stroke="#14181e" stroke-width="0.7"/>
    <rect x="76.3" y="18" width="2.2" height="14.5" fill="url(#fp-gun)" stroke="#14181e" stroke-width="0.7"/>
    <rect x="79.4" y="20" width="2.2" height="12.5" fill="url(#fp-gun)" stroke="#14181e" stroke-width="0.7"/>
    <rect x="72.6" y="26.5" width="9.8" height="2" fill="#22272f"/>
    <circle cx="74.3" cy="19.6" r="1.2" fill="#14181e"/>
    <circle cx="77.4" cy="17.6" r="1.2" fill="#14181e"/>
    <circle cx="80.5" cy="19.6" r="1.2" fill="#14181e"/>
  </g>
</svg>
